<?xml version="1.0" encoding="UTF-8" standalone="no"?>
<svg
   xmlns:dc="http://purl.org/dc/elements/1.1/"
   xmlns:cc="http://creativecommons.org/ns#"
   xmlns:rdf="http://www.w3.org/1999/02/22-rdf-syntax-ns#"
   xmlns:svg="http://www.w3.org/2000/svg"
   xmlns="http://www.w3.org/2000/svg"
   version="1.1"
   id="svg2"
   width="874.94397"
   height="999.93597">
  <metadata
     id="metadata10">
    <rdf:RDF>
      <cc:Work
         rdf:about="">
        <dc:format>image/svg+xml</dc:format>
        <dc:type
           rdf:resource="http://purl.org/dc/dcmitype/StillImage" />
        <dc:title></dc:title>
      </cc:Work>
    </rdf:RDF>
  </metadata>
  <defs
     id="defs8" />
  <path
     id="path4"
     d="m 5.389383e-8,281.232 0,-68.355 Q 1.9530001,175.77 29.295,150.381 56.637,124.992 93.744,124.992 l 93.744,0 0,-31.248 q 0,-39.06 27.342,-66.402 Q 242.172,0 281.232,0 l 312.48,0 q 39.06,0 66.402,27.342 27.342,27.342 27.342,66.402 l 0,31.248 93.744,0 q 37.107,0 64.449,25.389 27.342,25.389 29.295,62.496 l 0,68.355 q 0,25.389 -18.553,43.943 -18.553,18.554 -43.943,18.553 l 0,531.216 q 0,52.731 -36.13,88.862 -36.13,36.131 -88.862,36.13 l -499.968,0 q -52.731,0 -88.862,-36.13 -36.131,-36.13 -36.13,-88.862 l 0,-531.216 q -25.389,0 -43.943,-18.553 Q -9.9994611e-4,306.622 5.389383e-8,281.232 Z M 62.496,281.232 l 749.952,0 0,-62.496 q 0,-13.671 -8.789,-22.46 -8.789,-8.789 -22.46,-8.789 l -687.456,0 q -13.671,0 -22.46,8.789 -8.789,8.789 -8.789,22.46 l 0,62.496 z m 62.496,593.712 q 0,25.389 18.553,43.943 18.553,18.554 43.943,18.553 l 499.968,0 q 25.389,0 43.943,-18.553 18.554,-18.553 18.553,-43.943 l 0,-531.216 -624.96,0 0,531.216 z m 62.496,-31.248 0,-406.224 q 0,-13.671 8.789,-22.46 8.789,-8.789 22.46,-8.789 l 62.496,0 q 13.671,0 22.46,8.789 8.789,8.789 8.789,22.46 l 0,406.224 q 0,13.671 -8.789,22.46 -8.789,8.789 -22.46,8.789 l -62.496,0 q -13.671,0 -22.46,-8.789 -8.789,-8.789 -8.789,-22.46 z m 31.248,0 62.496,0 0,-406.224 -62.496,0 0,406.224 z m 31.248,-718.704 374.976,0 0,-31.248 q 0,-13.671 -8.789,-22.46 -8.789,-8.789 -22.46,-8.789 l -312.48,0 q -13.671,0 -22.46,8.789 -8.789,8.789 -8.789,22.46 l 0,31.248 z m 124.992,718.704 0,-406.224 q 0,-13.671 8.789,-22.46 8.789,-8.789 22.46,-8.789 l 62.496,0 q 13.671,0 22.46,8.789 8.789,8.789 8.789,22.46 l 0,406.224 q 0,13.671 -8.789,22.46 -8.789,8.789 -22.46,8.789 l -62.496,0 q -13.671,0 -22.46,-8.789 -8.789,-8.789 -8.789,-22.46 z m 31.248,0 62.496,0 0,-406.224 -62.496,0 0,406.224 z m 156.24,0 0,-406.224 q 0,-13.671 8.789,-22.46 8.789,-8.789 22.46,-8.789 l 62.496,0 q 13.671,0 22.46,8.789 8.789,8.789 8.789,22.46 l 0,406.224 q 0,13.671 -8.789,22.46 -8.789,8.789 -22.46,8.789 l -62.496,0 q -13.671,0 -22.46,-8.789 -8.789,-8.789 -8.789,-22.46 z m 31.248,0 62.496,0 0,-406.224 -62.496,0 0,406.224 z" />
</svg>
